# This file uses centimeters as units for non-parametric coordinates.

mtllib wind_turbine_blades.mtl
g default
v 79.812805 79.110939 -342.048401
v 80.425690 79.110939 -342.048401
v 80.732140 79.110939 -341.517609
v 80.425690 79.110939 -340.986847
v 79.812805 79.110939 -340.986847
v 79.506363 79.110939 -341.517609
v 79.812805 77.728592 -342.048401
v 80.425690 77.728592 -342.048401
v 80.732140 77.728592 -341.517609
v 80.425690 77.728592 -340.986847
v 79.812805 77.728592 -340.986847
v 79.506363 77.728592 -341.517609
v 78.998650 80.100769 -342.048401
v 80.425690 80.100769 -342.048401
v 80.732140 80.100769 -341.517609
v 80.425690 80.100769 -340.986847
v 78.998650 80.100769 -340.986847
v 78.692207 80.100769 -341.517609
v 79.860428 96.073792 -341.735016
v 80.425690 96.073792 -341.735016
v 80.732140 96.073792 -341.517609
v 80.425690 96.073792 -341.300232
v 79.860428 96.073792 -341.300232
v 79.553978 96.073792 -341.517609
v 79.952484 96.455658 -341.664185
v 80.333633 96.455658 -341.664185
v 80.540260 96.455658 -341.517609
v 80.333633 96.455658 -341.371033
v 79.952484 96.455658 -341.371033
v 79.745857 96.455658 -341.517609
v 82.144333 76.134171 -342.048401
v 81.837883 75.603401 -342.048401
v 81.684662 75.338013 -341.517609
v 81.837883 75.603401 -340.986847
v 82.144333 76.134171 -340.986847
v 82.297554 76.399567 -341.517609
v 80.947182 76.825348 -342.048401
v 80.640739 76.294571 -342.048401
v 80.487511 76.029190 -341.517609
v 80.640739 76.294571 -340.986847
v 80.947182 76.825348 -340.986847
v 81.100403 77.090736 -341.517609
v 83.408623 76.344345 -342.048401
v 82.695099 75.108490 -342.048401
v 82.541878 74.843094 -341.517609
v 82.695099 75.108490 -340.986847
v 83.408623 76.344345 -340.986847
v 83.561844 76.609726 -341.517609
v 96.810783 67.611511 -341.735016
v 96.528145 67.121979 -341.735016
v 96.374924 66.856583 -341.517609
v 96.528145 67.121979 -341.300232
v 96.810783 67.611511 -341.300232
v 96.964005 67.876892 -341.517609
v 97.095451 67.340851 -341.664185
v 96.904877 67.010773 -341.664185
v 96.801567 66.831825 -341.517609
v 96.904877 67.010773 -341.371033
v 97.095451 67.340851 -341.371033
v 97.198769 67.519791 -341.517609
v 78.400612 75.603401 -342.048401
v 78.094170 76.134171 -342.048401
v 77.940948 76.399567 -341.517609
v 78.094170 76.134171 -340.986847
v 78.400612 75.603401 -340.986847
v 78.553841 75.338013 -341.517609
v 79.597763 76.294571 -342.048401
v 79.291321 76.825348 -342.048401
v 79.138100 77.090736 -341.517609
v 79.291321 76.825348 -340.986847
v 79.597763 76.294571 -340.986847
v 79.750984 76.029190 -341.517609
v 77.950478 74.403412 -342.048401
v 77.236954 75.639267 -342.048401
v 77.083733 75.904648 -341.517609
v 77.236954 75.639267 -340.986847
v 77.950478 74.403412 -340.986847
v 78.103699 74.138016 -341.517609
v 63.686546 67.163208 -341.735016
v 63.403908 67.652756 -341.735016
v 63.250687 67.918137 -341.517609
v 63.403908 67.652756 -341.300232
v 63.686546 67.163208 -341.300232
v 63.839767 66.897827 -341.517609
v 63.309814 67.052010 -341.664185
v 63.119240 67.382095 -341.664185
v 63.015930 67.561035 -341.517609
v 63.119240 67.382095 -341.371033
v 63.309814 67.052010 -341.371033
v 63.413124 66.873062 -341.517609
vt 0.375000 0.312500
vt 0.416667 0.312500
vt 0.416667 0.688440
vt 0.375000 0.688440
vt 0.458333 0.312500
vt 0.458333 0.688440
vt 0.500000 0.312500
vt 0.500000 0.688440
vt 0.541667 0.312500
vt 0.541667 0.688440
vt 0.583333 0.312500
vt 0.583333 0.688440
vt 0.625000 0.312500
vt 0.625000 0.688440
vt 0.421875 0.020934
vt 0.578125 0.020934
vt 0.578125 0.020934
vt 0.421875 0.020934
vt 0.343750 0.156250
vt 0.343750 0.156250
vt 0.421875 0.291566
vt 0.421875 0.291566
vt 0.578125 0.291566
vt 0.578125 0.291566
vt 0.656250 0.156250
vt 0.656250 0.156250
vt 0.578125 0.020934
vt 0.421875 0.020934
vt 0.343750 0.156250
vt 0.421875 0.291566
vt 0.578125 0.291566
vt 0.656250 0.156250
vt 0.000000 0.000000
vt 1.000000 0.000000
vt 1.000000 1.000000
vt 0.000000 1.000000
vt 0.000000 0.000000
vt 1.000000 0.000000
vt 1.000000 1.000000
vt 0.000000 1.000000
vt 0.000000 0.000000
vt 1.000000 0.000000
vt 1.000000 1.000000
vt 0.000000 1.000000
vt 0.000000 0.000000
vt 1.000000 0.000000
vt 1.000000 1.000000
vt 0.000000 1.000000
vt 0.000000 0.000000
vt 1.000000 0.000000
vt 1.000000 1.000000
vt 0.000000 1.000000
vt 0.000000 0.000000
vt 1.000000 0.000000
vt 1.000000 1.000000
vt 0.000000 1.000000
vt 0.375000 0.312500
vt 0.416667 0.312500
vt 0.416667 0.688440
vt 0.375000 0.688440
vt 0.458333 0.312500
vt 0.458333 0.688440
vt 0.500000 0.312500
vt 0.500000 0.688440
vt 0.541667 0.312500
vt 0.541667 0.688440
vt 0.583333 0.312500
vt 0.583333 0.688440
vt 0.625000 0.312500
vt 0.625000 0.688440
vt 0.421875 0.020934
vt 0.578125 0.020934
vt 0.578125 0.020934
vt 0.421875 0.020934
vt 0.343750 0.156250
vt 0.343750 0.156250
vt 0.421875 0.291566
vt 0.421875 0.291566
vt 0.578125 0.291566
vt 0.578125 0.291566
vt 0.656250 0.156250
vt 0.656250 0.156250
vt 0.578125 0.020934
vt 0.421875 0.020934
vt 0.343750 0.156250
vt 0.421875 0.291566
vt 0.578125 0.291566
vt 0.656250 0.156250
vt 0.000000 0.000000
vt 1.000000 0.000000
vt 1.000000 1.000000
vt 0.000000 1.000000
vt 0.000000 0.000000
vt 1.000000 0.000000
vt 1.000000 1.000000
vt 0.000000 1.000000
vt 0.000000 0.000000
vt 1.000000 0.000000
vt 1.000000 1.000000
vt 0.000000 1.000000
vt 0.000000 0.000000
vt 1.000000 0.000000
vt 1.000000 1.000000
vt 0.000000 1.000000
vt 0.000000 0.000000
vt 1.000000 0.000000
vt 1.000000 1.000000
vt 0.000000 1.000000
vt 0.000000 0.000000
vt 1.000000 0.000000
vt 1.000000 1.000000
vt 0.000000 1.000000
vt 0.375000 0.312500
vt 0.416667 0.312500
vt 0.416667 0.688440
vt 0.375000 0.688440
vt 0.458333 0.312500
vt 0.458333 0.688440
vt 0.500000 0.312500
vt 0.500000 0.688440
vt 0.541667 0.312500
vt 0.541667 0.688440
vt 0.583333 0.312500
vt 0.583333 0.688440
vt 0.625000 0.312500
vt 0.625000 0.688440
vt 0.421875 0.020934
vt 0.578125 0.020934
vt 0.578125 0.020934
vt 0.421875 0.020934
vt 0.343750 0.156250
vt 0.343750 0.156250
vt 0.421875 0.291566
vt 0.421875 0.291566
vt 0.578125 0.291566
vt 0.578125 0.291566
vt 0.656250 0.156250
vt 0.656250 0.156250
vt 0.578125 0.020934
vt 0.421875 0.020934
vt 0.343750 0.156250
vt 0.421875 0.291566
vt 0.578125 0.291566
vt 0.656250 0.156250
vt 0.000000 0.000000
vt 1.000000 0.000000
vt 1.000000 1.000000
vt 0.000000 1.000000
vt 0.000000 0.000000
vt 1.000000 0.000000
vt 1.000000 1.000000
vt 0.000000 1.000000
vt 0.000000 0.000000
vt 1.000000 0.000000
vt 1.000000 1.000000
vt 0.000000 1.000000
vt 0.000000 0.000000
vt 1.000000 0.000000
vt 1.000000 1.000000
vt 0.000000 1.000000
vt 0.000000 0.000000
vt 1.000000 0.000000
vt 1.000000 1.000000
vt 0.000000 1.000000
vt 0.000000 0.000000
vt 1.000000 0.000000
vt 1.000000 1.000000
vt 0.000000 1.000000
vn -0.359933 -0.107330 -0.926784
vn 0.438073 0.000000 -0.898940
vn 0.500007 0.000000 -0.866021
vn -0.500010 0.000000 -0.866020
vn 1.000000 0.000000 0.000000
vn 1.000000 0.000000 0.000000
vn 0.438056 0.000000 0.898948
vn 0.499991 0.000000 0.866030
vn -0.359918 -0.107323 0.926791
vn -0.499994 0.000000 0.866029
vn -0.934439 -0.356125 0.000001
vn -1.000000 0.000000 0.000000
vn -0.298855 0.006886 -0.954274
vn 0.279978 0.015646 -0.959879
vn 0.999973 0.007387 -0.000000
vn 0.279938 0.015646 0.959891
vn -0.298814 0.006886 0.954287
vn -0.999995 0.003310 -0.000001
vn -0.265429 0.033644 -0.963543
vn 0.277351 0.019391 -0.960573
vn 0.999924 0.012375 -0.000000
vn 0.277309 0.019390 0.960585
vn -0.265389 0.033642 0.963554
vn -0.997845 0.065609 0.000000
vn -0.178803 0.548699 -0.816675
vn 0.178801 0.548697 -0.816677
vn 0.841992 0.539490 0.000005
vn 0.178805 0.548657 0.816703
vn -0.178802 0.548659 0.816703
vn -0.841984 0.539503 -0.000004
vn 0.087023 0.365378 -0.926782
vn -0.219034 -0.379387 -0.898938
vn -0.250007 -0.433027 -0.866016
vn 0.250008 0.433032 -0.866013
vn -0.500001 -0.866025 -0.000001
vn -0.499992 -0.866030 0.000002
vn -0.219035 -0.379368 0.898946
vn -0.249991 -0.433012 0.866028
vn 0.087002 0.365358 0.926792
vn 0.249989 0.433012 0.866029
vn 0.158802 0.987310 0.000003
vn 0.499990 0.866032 0.000004
vn 0.155389 0.255370 -0.954275
vn -0.126435 -0.250288 -0.959880
vn -0.493562 -0.869711 -0.000000
vn -0.126417 -0.250270 0.959887
vn 0.155368 0.255353 0.954283
vn 0.502859 0.864369 0.000001
vn 0.161850 0.213047 -0.963543
vn -0.121879 -0.249886 -0.960574
vn -0.489214 -0.872164 -0.000000
vn -0.121859 -0.249868 0.960581
vn 0.161829 0.213031 0.963550
vn 0.555735 0.831360 0.000002
vn 0.564603 -0.119481 -0.816669
vn 0.385807 -0.429205 -0.816662
vn 0.046193 -0.998933 -0.000002
vn 0.385731 -0.429181 0.816710
vn 0.564541 -0.119474 0.816712
vn 0.888176 0.459503 0.000003
vn 0.272909 -0.258048 -0.926786
vn -0.219042 0.379387 -0.898936
vn -0.250016 0.433023 -0.866016
vn 0.249996 -0.433029 -0.866018
vn -0.499999 0.866026 -0.000000
vn -0.500003 0.866024 -0.000004
vn -0.219029 0.379368 0.898947
vn -0.250001 0.433007 0.866028
vn 0.272905 -0.258036 0.926791
vn 0.249990 -0.433011 0.866029
vn 0.775629 -0.631189 0.000003
vn 0.499991 -0.866031 0.000002
vn 0.143466 -0.262255 -0.954275
vn -0.153532 0.234643 -0.959881
vn -0.506364 0.862320 0.000002
vn -0.153511 0.234625 0.959888
vn 0.143445 -0.262235 0.954283
vn 0.497117 -0.867684 -0.000002
vn 0.103580 -0.246686 -0.963544
vn -0.155463 0.230496 -0.960574
vn -0.510659 0.859783 0.000002
vn -0.155440 0.230479 0.960582
vn 0.103560 -0.246667 0.963551
vn 0.442089 -0.896971 -0.000001
vn -0.385828 -0.429203 -0.816653
vn -0.564635 -0.119489 -0.816646
vn -0.888194 0.459469 -0.000001
vn -0.564560 -0.119482 0.816699
vn -0.385766 -0.429177 0.816696
vn -0.046228 -0.998931 -0.000000
s 1
g polySurface282
usemtl ls_scene_assets_05:ls_scene_assets_04:ls_scene_assets_03:farm_building_04:modern_farmhouse_06:wind_turbine_04:lambert2SG
f 1/1/1 2/2/2 8/3/3 7/4/4
f 2/2/2 3/5/5 9/6/6 8/3/3
f 3/5/5 4/7/7 10/8/8 9/6/6
f 4/7/7 5/9/9 11/10/10 10/8/8
f 5/9/9 6/11/11 12/12/12 11/10/10
f 6/11/11 1/13/1 7/14/4 12/12/12
f 2/15/2 1/16/1 13/17/13 14/18/14
f 3/19/5 2/15/2 14/18/14 15/20/15
f 4/21/7 3/19/5 15/20/15 16/22/16
f 5/23/9 4/21/7 16/22/16 17/24/17
f 6/25/11 5/23/9 17/24/17 18/26/18
f 1/16/1 6/25/11 18/26/18 13/17/13
f 14/18/14 13/17/13 19/27/19 20/28/20
f 15/20/15 14/18/14 20/28/20 21/29/21
f 16/22/16 15/20/15 21/29/21 22/30/22
f 17/24/17 16/22/16 22/30/22 23/31/23
f 18/26/18 17/24/17 23/31/23 24/32/24
f 13/17/13 18/26/18 24/32/24 19/27/19
f 20/33/20 19/34/19 25/35/25 26/36/26
f 21/37/21 20/38/20 26/39/26 27/40/27
f 22/41/22 21/42/21 27/43/27 28/44/28
f 23/45/23 22/46/22 28/47/28 29/48/29
f 24/49/24 23/50/23 29/51/29 30/52/30
f 19/53/19 24/54/24 30/55/30 25/56/25
f 29/48/29 25/56/25 30/52/30
f 26/36/26 25/56/25 29/48/29 28/44/28
f 26/36/26 28/44/28 27/40/27
s 2
f 31/57/31 32/58/32 38/59/33 37/60/34
f 32/58/32 33/61/35 39/62/36 38/59/33
f 33/61/35 34/63/37 40/64/38 39/62/36
f 34/63/37 35/65/39 41/66/40 40/64/38
f 35/65/39 36/67/41 42/68/42 41/66/40
f 36/67/41 31/69/31 37/70/34 42/68/42
f 32/71/32 31/72/31 43/73/43 44/74/44
f 33/75/35 32/71/32 44/74/44 45/76/45
f 34/77/37 33/75/35 45/76/45 46/78/46
f 35/79/39 34/77/37 46/78/46 47/80/47
f 36/81/41 35/79/39 47/80/47 48/82/48
f 31/72/31 36/81/41 48/82/48 43/73/43
f 44/74/44 43/73/43 49/83/49 50/84/50
f 45/76/45 44/74/44 50/84/50 51/85/51
f 46/78/46 45/76/45 51/85/51 52/86/52
f 47/80/47 46/78/46 52/86/52 53/87/53
f 48/82/48 47/80/47 53/87/53 54/88/54
f 43/73/43 48/82/48 54/88/54 49/83/49
f 50/89/50 49/90/49 55/91/55 56/92/56
f 51/93/51 50/94/50 56/95/56 57/96/57
f 52/97/52 51/98/51 57/99/57 58/100/58
f 53/101/53 52/102/52 58/103/58 59/104/59
f 54/105/54 53/106/53 59/107/59 60/108/60
f 49/109/49 54/110/54 60/111/60 55/112/55
f 59/104/59 55/112/55 60/108/60
f 56/92/56 55/112/55 59/104/59 58/100/58
f 56/92/56 58/100/58 57/96/57
s 3
f 61/113/61 62/114/62 68/115/63 67/116/64
f 62/114/62 63/117/65 69/118/66 68/115/63
f 63/117/65 64/119/67 70/120/68 69/118/66
f 64/119/67 65/121/69 71/122/70 70/120/68
f 65/121/69 66/123/71 72/124/72 71/122/70
f 66/123/71 61/125/61 67/126/64 72/124/72
f 62/127/62 61/128/61 73/129/73 74/130/74
f 63/131/65 62/127/62 74/130/74 75/132/75
f 64/133/67 63/131/65 75/132/75 76/134/76
f 65/135/69 64/133/67 76/134/76 77/136/77
f 66/137/71 65/135/69 77/136/77 78/138/78
f 61/128/61 66/137/71 78/138/78 73/129/73
f 74/130/74 73/129/73 79/139/79 80/140/80
f 75/132/75 74/130/74 80/140/80 81/141/81
f 76/134/76 75/132/75 81/141/81 82/142/82
f 77/136/77 76/134/76 82/142/82 83/143/83
f 78/138/78 77/136/77 83/143/83 84/144/84
f 73/129/73 78/138/78 84/144/84 79/139/79
f 80/145/80 79/146/79 85/147/85 86/148/86
f 81/149/81 80/150/80 86/151/86 87/152/87
f 82/153/82 81/154/81 87/155/87 88/156/88
f 83/157/83 82/158/82 88/159/88 89/160/89
f 84/161/84 83/162/83 89/163/89 90/164/90
f 79/165/79 84/166/84 90/167/90 85/168/85
f 89/160/89 85/168/85 90/164/90
f 86/148/86 85/168/85 89/160/89 88/156/88
f 86/148/86 88/156/88 87/152/87
