# This file uses centimeters as units for non-parametric coordinates.

mtllib pine_tree_tri.mtl
g default
v 50.043983 0.372728 -223.771240
v 49.151176 0.372728 -223.771240
v 48.704765 0.372728 -222.998077
v 49.151176 0.372728 -222.224884
v 50.043983 0.372728 -222.224884
v 50.490379 0.372728 -222.998077
v 49.878075 9.230426 -223.483917
v 49.317085 9.230426 -223.483917
v 49.036583 9.230426 -222.998077
v 49.317085 9.230426 -222.512207
v 49.878075 9.230426 -222.512207
v 50.158577 9.230426 -222.998077
v 48.093269 10.431191 -225.591125
v 46.599754 10.431191 -222.991852
v 48.104057 10.431191 -220.398773
v 51.101875 10.431191 -220.404999
v 52.595406 10.431191 -223.004272
v 51.091103 10.431191 -225.597351
v 49.597572 16.416656 -222.998077
v 49.597572 13.260285 -222.998077
v 51.717537 7.966359 -226.669922
v 47.477623 7.966359 -226.669922
v 45.357689 7.966359 -222.998077
v 47.477623 7.966359 -219.326202
v 51.717537 7.966359 -219.326202
v 53.837471 7.966359 -222.998077
v 49.597572 10.713668 -222.998077
v 52.394981 4.007047 -227.838959
v 46.803932 4.007047 -227.841125
v 44.006523 4.007047 -223.000244
v 46.800163 4.007047 -218.157166
v 52.391212 4.007047 -218.154999
v 55.188637 4.007047 -222.995880
vt 0.128496 0.005635
vt 0.164340 0.005635
vt 0.164340 0.304534
vt 0.128496 0.304533
vt 0.199924 0.005635
vt 0.199924 0.304534
vt 0.235355 0.005635
vt 0.235355 0.304534
vt 0.021995 0.005635
vt 0.057432 0.005635
vt 0.057432 0.304534
vt 0.021995 0.304534
vt 0.093018 0.005635
vt 0.093018 0.304534
vt 0.578335 0.576707
vt 0.340741 0.204098
vt 0.813332 0.189456
vt 0.995613 0.582538
vt 0.826864 0.977961
vt 0.386628 0.984932
vt 0.145963 0.629624
vt 0.142277 0.615704
vt 0.331674 0.211058
vt 0.576071 0.580454
vt 0.814260 0.185309
vt 0.997700 0.583483
vt 0.829637 0.971836
vt 0.387689 0.975694
vt 0.812290 0.184551
vt 0.999614 0.595647
vt 0.576389 0.579933
vt 0.802526 0.986655
vt 0.379213 0.990159
vt 0.130525 0.619413
vt 0.344728 0.202647
vn 0.499644 0.037431 -0.865422
vn -0.499641 0.037431 -0.865424
vn -0.499640 0.037431 -0.865424
vn 0.499642 0.037431 -0.865423
vn -0.999299 0.037434 0.000000
vn -0.999299 0.037434 -0.000000
vn -0.499657 0.037432 0.865414
vn -0.499656 0.037432 0.865415
vn 0.499660 0.037431 0.865413
vn 0.499659 0.037431 0.865413
vn 0.999299 0.037432 0.000000
vn 0.999299 0.037432 -0.000000
vn 0.000001 1.000000 -0.000003
vn -0.448668 0.447819 -0.773405
vn -0.894121 0.447822 0.001858
vn -0.445450 0.447823 0.775261
vn 0.448667 0.447823 0.773404
vn 0.894120 0.447824 -0.001854
vn 0.445450 0.447821 -0.775262
vn 0.780527 0.625122 0.000000
vn 0.390263 0.625122 -0.675956
vn -0.000001 1.000000 0.000001
vn -0.390263 0.625122 -0.675957
vn -0.780528 0.625120 0.000000
vn -0.390265 0.625123 0.675954
vn 0.390265 0.625124 0.675954
vn 0.384307 0.640332 -0.665044
vn -0.383790 0.640331 -0.665343
vn 0.000000 1.000000 -0.000001
vn -0.768097 0.640334 -0.000298
vn -0.384308 0.640333 0.665042
vn 0.383789 0.640333 0.665342
vn 0.768097 0.640334 0.000300
s 1
g polySurface305
usemtl lambert15SG
f 1/1/1 2/2/2 8/3/3 7/4/4
f 2/2/2 3/5/5 9/6/6 8/3/3
f 3/5/5 4/7/7 10/8/8 9/6/6
f 4/9/7 5/10/9 11/11/10 10/12/8
f 5/10/9 6/13/11 12/14/12 11/11/10
f 6/13/11 1/1/1 7/4/4 12/14/12
s 2
f 19/15/13 13/16/14 14/17/15
f 19/15/13 14/17/15 15/18/16
f 19/15/13 15/18/16 16/19/17
f 19/15/13 16/19/17 17/20/18
f 19/15/13 17/20/18 18/21/19
f 19/15/13 18/21/19 13/16/14
s 3
f 26/22/20 21/23/21 20/24/22
f 21/23/21 22/25/23 20/24/22
f 22/25/23 23/26/24 20/24/22
f 23/26/24 24/27/25 20/24/22
f 24/27/25 25/28/26 20/24/22
f 25/28/26 26/22/20 20/24/22
s 4
f 28/29/27 29/30/28 27/31/29
f 29/30/28 30/32/30 27/31/29
f 30/32/30 31/33/31 27/31/29
f 31/33/31 32/34/32 27/31/29
f 32/34/32 33/35/33 27/31/29
f 33/35/33 28/29/27 27/31/29
